<?xml version="1.0" encoding="UTF-8" standalone="no"?>
<!-- Generator: Adobe Illustrator 18.0.0, SVG Export Plug-In . SVG Version: 6.00 Build 0)  -->

<svg
   xmlns:dc="http://purl.org/dc/elements/1.1/"
   xmlns:cc="http://creativecommons.org/ns#"
   xmlns:rdf="http://www.w3.org/1999/02/22-rdf-syntax-ns#"
   xmlns:svg="http://www.w3.org/2000/svg"
   xmlns="http://www.w3.org/2000/svg"
   xmlns:sodipodi="http://sodipodi.sourceforge.net/DTD/sodipodi-0.dtd"
   xmlns:inkscape="http://www.inkscape.org/namespaces/inkscape"
   version="1.1"
   id="Capa_1"
   x="0px"
   y="0px"
   viewBox="0 0 53 53"
   style="enable-background:new 0 0 53 53;"
   xml:space="preserve"
   sodipodi:docname="minimize.svg"
   inkscape:version="0.92.3 (2405546, 2018-03-11)"><metadata
   id="metadata47"><rdf:RDF><cc:Work
       rdf:about=""><dc:format>image/svg+xml</dc:format><dc:type
         rdf:resource="http://purl.org/dc/dcmitype/StillImage" /></cc:Work></rdf:RDF></metadata><defs
   id="defs45" /><sodipodi:namedview
   pagecolor="#ffffff"
   bordercolor="#666666"
   borderopacity="1"
   objecttolerance="10"
   gridtolerance="10"
   guidetolerance="10"
   inkscape:pageopacity="0"
   inkscape:pageshadow="2"
   inkscape:window-width="640"
   inkscape:window-height="480"
   id="namedview43"
   showgrid="false"
   inkscape:zoom="4.4528302"
   inkscape:cx="26.5"
   inkscape:cy="26.5"
   inkscape:window-x="45"
   inkscape:window-y="27"
   inkscape:window-maximized="0"
   inkscape:current-layer="Capa_1" />
<g
   id="g10"
   style="fill:#ffffff">
	<path
   d="M36.414,35H46c0.552,0,1-0.448,1-1s-0.448-1-1-1H34c-0.13,0-0.26,0.027-0.382,0.077c-0.244,0.101-0.439,0.296-0.541,0.541   C33.026,33.74,33,33.869,33,34v12c0,0.552,0.448,1,1,1s1-0.448,1-1v-9.586l16.293,16.293C51.488,52.902,51.744,53,52,53   s0.512-0.098,0.707-0.293c0.391-0.391,0.391-1.023,0-1.414L36.414,35z"
   id="path2"
   style="fill:#ffffff" />
	<path
   d="M16.584,17.999H6.999c-0.552,0-1,0.448-1,1s0.448,1,1,1h12c0.13,0,0.26-0.027,0.382-0.077   c0.244-0.101,0.439-0.296,0.541-0.541c0.051-0.122,0.077-0.252,0.077-0.382v-12c0-0.552-0.448-1-1-1s-1,0.448-1,1v9.586   L1.707,0.293c-0.391-0.391-1.023-0.391-1.414,0s-0.391,1.023,0,1.414L16.584,17.999z"
   id="path4"
   style="fill:#ffffff" />
	<path
   d="M19.382,33.077C19.26,33.027,19.13,33,19,33H7c-0.552,0-1,0.448-1,1s0.448,1,1,1h9.586L0.293,51.293   c-0.391,0.391-0.391,1.023,0,1.414C0.488,52.902,0.744,53,1,53s0.512-0.098,0.707-0.293L18,36.414V46c0,0.552,0.448,1,1,1   s1-0.448,1-1V34c0-0.13-0.027-0.26-0.077-0.382C19.821,33.373,19.627,33.179,19.382,33.077z"
   id="path6"
   style="fill:#ffffff" />
	<path
   d="M33.618,19.923C33.74,19.973,33.87,20,34,20h12c0.552,0,1-0.448,1-1s-0.448-1-1-1h-9.586L52.707,1.707   c0.391-0.391,0.391-1.023,0-1.414s-1.023-0.391-1.414,0L35,16.586V7c0-0.552-0.448-1-1-1s-1,0.448-1,1v12   c0,0.13,0.027,0.26,0.077,0.382C33.179,19.627,33.373,19.821,33.618,19.923z"
   id="path8"
   style="fill:#ffffff" />
</g>
<g
   id="g12"
   style="fill:#ffffff">
</g>
<g
   id="g14"
   style="fill:#ffffff">
</g>
<g
   id="g16"
   style="fill:#ffffff">
</g>
<g
   id="g18"
   style="fill:#ffffff">
</g>
<g
   id="g20"
   style="fill:#ffffff">
</g>
<g
   id="g22"
   style="fill:#ffffff">
</g>
<g
   id="g24"
   style="fill:#ffffff">
</g>
<g
   id="g26"
   style="fill:#ffffff">
</g>
<g
   id="g28"
   style="fill:#ffffff">
</g>
<g
   id="g30"
   style="fill:#ffffff">
</g>
<g
   id="g32"
   style="fill:#ffffff">
</g>
<g
   id="g34"
   style="fill:#ffffff">
</g>
<g
   id="g36"
   style="fill:#ffffff">
</g>
<g
   id="g38"
   style="fill:#ffffff">
</g>
<g
   id="g40"
   style="fill:#ffffff">
</g>
</svg>