<?xml version="1.0" encoding="UTF-8" standalone="no"?>
<svg
   xmlns:dc="http://purl.org/dc/elements/1.1/"
   xmlns:cc="http://creativecommons.org/ns#"
   xmlns:rdf="http://www.w3.org/1999/02/22-rdf-syntax-ns#"
   xmlns:svg="http://www.w3.org/2000/svg"
   xmlns="http://www.w3.org/2000/svg"
   xmlns:sodipodi="http://sodipodi.sourceforge.net/DTD/sodipodi-0.dtd"
   xmlns:inkscape="http://www.inkscape.org/namespaces/inkscape"
   height="496pt"
   viewBox="0 0 496 496"
   width="496pt"
   version="1.1"
   id="svg6"
   sodipodi:docname="trash.svg"
   inkscape:version="0.92.3 (2405546, 2018-03-11)">
  <metadata
     id="metadata12">
    <rdf:RDF>
      <cc:Work
         rdf:about="">
        <dc:format>image/svg+xml</dc:format>
        <dc:type
           rdf:resource="http://purl.org/dc/dcmitype/StillImage" />
      </cc:Work>
    </rdf:RDF>
  </metadata>
  <defs
     id="defs10" />
  <sodipodi:namedview
     pagecolor="#ffffff"
     bordercolor="#666666"
     borderopacity="1"
     objecttolerance="10"
     gridtolerance="10"
     guidetolerance="10"
     inkscape:pageopacity="0"
     inkscape:pageshadow="2"
     inkscape:window-width="640"
     inkscape:window-height="480"
     id="namedview8"
     showgrid="false"
     inkscape:zoom="0.35685484"
     inkscape:cx="330.66667"
     inkscape:cy="330.66667"
     inkscape:window-x="45"
     inkscape:window-y="27"
     inkscape:window-maximized="0"
     inkscape:current-layer="svg6" />
  <path
     d="m488 0h-480c-4.417969 0-8 3.582031-8 8v120c0 4.417969 3.582031 8 8 8h17.441406l70.71875 353.601562c.761719 3.722657 4.039063 6.398438 7.839844 6.398438h288c3.800781 0 7.078125-2.675781 7.839844-6.398438l70.71875-353.601562h17.441406c4.417969 0 8-3.582031 8-8v-120c0-4.417969-3.582031-8-8-8zm-102.558594 480h-274.882812l-68.796875-344h412.476562zm94.558594-360h-464v-104h464zm0 0"
     id="path2"
     style="fill:#ffffff" />
  <path
     d="m138.175781 360.566406c0 2.125.84375 4.15625 2.34375 5.65625l45.257813 45.257813c3.121094 3.121093 8.1875 3.121093 11.3125 0l50.910156-50.914063 50.910156 50.914063c3.125 3.121093 8.191406 3.121093 11.3125 0l45.257813-45.257813c3.121093-3.121094 3.121093-8.1875 0-11.3125l-50.914063-50.910156 50.914063-50.910156c3.121093-3.125 3.121093-8.191406 0-11.3125l-45.257813-45.257813c-3.121094-3.121093-8.1875-3.121093-11.3125 0l-50.910156 50.914063-50.910156-50.914063c-3.125-3.121093-8.191406-3.121093-11.3125 0l-45.257813 45.257813c-3.121093 3.121094-3.121093 8.1875 0 11.3125l50.914063 50.910156-50.914063 50.910156c-1.5 1.5-2.34375 3.535156-2.34375 5.65625zm70.222657-50.910156c3.125-3.125 3.125-8.1875 0-11.3125l-50.910157-50.910156 33.945313-33.9375 50.910156 50.902344c3.125 3.125 8.1875 3.125 11.3125 0l50.910156-50.902344 33.945313 33.9375-50.910157 50.910156c-3.125 3.125-3.125 8.1875 0 11.3125l50.910157 50.910156-33.945313 33.9375-50.910156-50.902344c-3.125-3.125-8.1875-3.125-11.3125 0l-50.910156 50.902344-33.945313-33.9375zm0 0"
     id="path4"
     style="fill:#ffffff" />
</svg>
